<?xml version="1.0" encoding="UTF-8"?>
<svg xmlns="http://www.w3.org/2000/svg" viewBox="0 0 1200 630" width="1200" height="630">
  <defs>
    <linearGradient id="g7682" x1="80.09075115760243%" y1="10.068224497635363%" x2="19.90924884239758%" y2="89.93177550236464%">
      <stop offset="0%" stop-color="#D97706"/>
      <stop offset="100%" stop-color="#B45309"/>
    </linearGradient>
  </defs>
  <rect width="1200" height="630" fill="url(#g7682)"/>
  <circle cx="479.03046631254256" cy="300.0707626156509" r="92.95241544488817" fill="none" stroke="rgba(255,255,255,0.12)" stroke-width="2"/><line x1="479.03046631254256" y1="300.0707626156509" x2="571.9828817574307" y2="300.0707626156509" stroke="rgba(255,255,255,0.15)" stroke-width="2"/><line x1="479.03046631254256" y1="300.0707626156509" x2="518.4668362857923" y2="339.5071325889007" stroke="rgba(255,255,255,0.15)" stroke-width="1"/><line x1="479.03046631254256" y1="300.0707626156509" x2="479.03046631254256" y2="393.02317806053907" stroke="rgba(255,255,255,0.15)" stroke-width="2"/><line x1="479.03046631254256" y1="300.0707626156509" x2="439.5940963392928" y2="339.5071325889007" stroke="rgba(255,255,255,0.15)" stroke-width="1"/><line x1="479.03046631254256" y1="300.0707626156509" x2="386.0780508676544" y2="300.0707626156509" stroke="rgba(255,255,255,0.15)" stroke-width="2"/><line x1="479.03046631254256" y1="300.0707626156509" x2="439.5940963392928" y2="260.6343926424011" stroke="rgba(255,255,255,0.15)" stroke-width="1"/><line x1="479.03046631254256" y1="300.0707626156509" x2="479.03046631254256" y2="207.11834717076272" stroke="rgba(255,255,255,0.15)" stroke-width="2"/><line x1="479.03046631254256" y1="300.0707626156509" x2="518.4668362857923" y2="260.6343926424011" stroke="rgba(255,255,255,0.15)" stroke-width="1"/><path d="M 600 174.01881502009928 L 600 151.03365543476306 L 620 141.69759922131755 L 640 192.15378095825827 L 660 172.58836702816856 L 680 188.80885812212597 L 700 190.81991378404982 L 720 206.45705594127656 L 740 183.3231558942581 L 760 163.98579958975373 L 780 175.09446294141767 L 800 189.59574157324388 L 820 144.06027743629755 L 840 174.31367737309876 L 860 201.58894409102535 L 880 199.33724305982923 L 900 170.6249301355587 L 920 148.62254696114553 L 940 187.53733999937083 L 960 174.19573341310425 L 980 192.36620988368708 L 1000 202.4268446973781 L 1020 190.09044996118828 L 1040 148.49658155315382 L 1060 202.50127018069435 L 1080 189.42786977089065 L 1100 188.69892802893375" fill="none" stroke="rgba(255,255,255,0.10314965159632265)" stroke-width="1.5"/><path d="M 600 245.13727293349802 L 600 273.7134620411544 L 620 235.54852170742205 L 640 239.1003634033576 L 660 270.4834136348593 L 680 262.7312105049831 L 700 265.17021732008965 L 720 263.71714809806105 L 740 252.26033946624543 L 760 222.58940761774167 L 780 236.10085786747365 L 800 246.97368420484668 L 820 236.12334586401252 L 840 257.1210501309314 L 860 227.39596253441476 L 880 261.6713666341788 L 900 253.87123984950335 L 920 233.6399719135674 L 940 237.6760433460338 L 960 271.52284767924937 L 980 266.82509635006636 L 1000 262.441321513486 L 1020 253.8477648931617 L 1040 213.86959245265749 L 1060 229.97509845882348 L 1080 216.87155775215604 L 1100 222.25930471301243" fill="none" stroke="rgba(255,255,255,0.09155519018881023)" stroke-width="1.5"/><path d="M 600 336.61386884748936 L 600 317.05589487604465 L 620 317.82598479845706 L 640 320.179553390678 L 660 331.1560175675548 L 680 340.2195967500512 L 700 315.6888229396927 L 720 317.9855451032333 L 740 343.5857495872695 L 760 312.9856741170718 L 780 324.13301233496145 L 800 368.54703820351534 L 820 356.90558014390126 L 840 354.8944870915466 L 860 331.11045836999045 L 880 358.66666473422225 L 900 353.2403538727169 L 920 314.73128648418094 L 940 358.54009363015786 L 960 370.57694264859254 L 980 358.588856347839 L 1000 316.06262362981903 L 1020 347.68978293503136 L 1040 316.37860731575773 L 1060 314.44696073485613 L 1080 325.5738807446066 L 1100 352.0224286953026" fill="none" stroke="rgba(255,255,255,0.06601983781903982)" stroke-width="1.5"/><path d="M 600 419.3802963756025 L 600 391.9238682005098 L 620 439.57422683699303 L 640 406.54959722732053 L 660 442.9508943772631 L 680 408.975999257986 L 700 435.5675402582962 L 720 434.06813186965417 L 740 444.11532007265555 L 760 431.08124961289985 L 780 432.55691593950996 L 800 436.51029239943875 L 820 389.5674427748419 L 840 436.92992762237213 L 860 402.7128722398385 L 880 404.4856242223867 L 900 425.9840372332654 L 920 385.80197453094524 L 940 414.7344866654308 L 960 404.53667942120444 L 980 391.7363294958439 L 1000 437.1699045103794 L 1020 394.4109238314712 L 1040 411.14430911147923 L 1060 430.1206333285227 L 1080 444.32625410399004 L 1100 442.04404689712635" fill="none" stroke="rgba(255,255,255,0.09563461191952227)" stroke-width="1.5"/><line x1="150" y1="535.1502705691382" x2="1050" y2="535.1502705691382" stroke="rgba(255,255,255,0.12)" stroke-width="2"/><circle cx="233.75963457860053" cy="535.1502705691382" r="5" fill="rgba(255,255,255,0.2)"/><line x1="233.75963457860053" y1="520.1502705691382" x2="233.75963457860053" y2="550.1502705691382" stroke="rgba(255,255,255,0.15)" stroke-width="2"/><circle cx="377.1085167117417" cy="535.1502705691382" r="5" fill="rgba(255,255,255,0.2)"/><line x1="377.1085167117417" y1="520.1502705691382" x2="377.1085167117417" y2="550.1502705691382" stroke="rgba(255,255,255,0.15)" stroke-width="2"/><circle cx="523.9939721208066" cy="535.1502705691382" r="5" fill="rgba(255,255,255,0.2)"/><line x1="523.9939721208066" y1="520.1502705691382" x2="523.9939721208066" y2="550.1502705691382" stroke="rgba(255,255,255,0.15)" stroke-width="2"/><circle cx="685.1095935888588" cy="535.1502705691382" r="5" fill="rgba(255,255,255,0.2)"/><line x1="685.1095935888588" y1="520.1502705691382" x2="685.1095935888588" y2="550.1502705691382" stroke="rgba(255,255,255,0.15)" stroke-width="2"/><circle cx="811.151753263548" cy="535.1502705691382" r="5" fill="rgba(255,255,255,0.2)"/><line x1="811.151753263548" y1="520.1502705691382" x2="811.151753263548" y2="550.1502705691382" stroke="rgba(255,255,255,0.15)" stroke-width="2"/><circle cx="962.5758019369096" cy="535.1502705691382" r="5" fill="rgba(255,255,255,0.2)"/><line x1="962.5758019369096" y1="520.1502705691382" x2="962.5758019369096" y2="550.1502705691382" stroke="rgba(255,255,255,0.15)" stroke-width="2"/>
  <circle cx="372.72800132632256" cy="303.0943936225958" r="2.2686114935204387" fill="rgba(255,255,255,0.04801668998086825)"/><circle cx="695.4632869921625" cy="275.37685233168304" r="1.2431476949714124" fill="rgba(255,255,255,0.06449371049646288)"/><circle cx="300.82197776064277" cy="296.70544089982286" r="1.8431169404648244" fill="rgba(255,255,255,0.06953815599670635)"/><circle cx="1194.2039966583252" cy="83.06906118057668" r="1.5571429869160056" fill="rgba(255,255,255,0.07074195062275976)"/><circle cx="846.8405976891518" cy="386.32320245727897" r="1.9904489000327885" fill="rgba(255,255,255,0.04423068935982883)"/><circle cx="315.77742733061314" cy="389.6331487968564" r="1.3419423634186387" fill="rgba(255,255,255,0.06239694252843037)"/><circle cx="713.2168985903263" cy="569.2166815744713" r="2.45168187469244" fill="rgba(255,255,255,0.07745666094822809)"/><circle cx="1077.9472947120667" cy="472.01734562404454" r="2.834956885781139" fill="rgba(255,255,255,0.04965771550312638)"/><circle cx="23.33379713818431" cy="454.277760903351" r="1.3982242001220584" fill="rgba(255,255,255,0.05500791102647781)"/><circle cx="599.068068433553" cy="560.2078696712852" r="1.3765725512057543" fill="rgba(255,255,255,0.03597589425742626)"/><circle cx="904.7905214130878" cy="614.8692723317072" r="2.8302224283106625" fill="rgba(255,255,255,0.06262619097949937)"/><circle cx="778.3990351483226" cy="473.81535085849464" r="1.109483914449811" fill="rgba(255,255,255,0.05159596717683598)"/><circle cx="59.37587767839432" cy="42.01003694208339" r="2.4686037031933665" fill="rgba(255,255,255,0.043483025762252506)"/><circle cx="33.6000831797719" cy="362.00414745602757" r="2.587267506867647" fill="rgba(255,255,255,0.06034694442758337)"/><circle cx="903.7355194799602" cy="184.85333075048402" r="2.756547166965902" fill="rgba(255,255,255,0.054914304027333855)"/><circle cx="482.07152215763927" cy="261.3088336237706" r="1.986250935588032" fill="rgba(255,255,255,0.07605418754508719)"/><circle cx="949.0413629449904" cy="370.7012529345229" r="1.9726113947108388" fill="rgba(255,255,255,0.06560473879333586)"/><circle cx="962.9244580864906" cy="310.47666266094893" r="1.4624314801767468" fill="rgba(255,255,255,0.043953301683068276)"/><circle cx="1017.4450144171715" cy="163.40362944407389" r="1.7785788690671325" fill="rgba(255,255,255,0.030994087290018797)"/><circle cx="1194.2269382067025" cy="397.499818475917" r="2.9050393202342093" fill="rgba(255,255,255,0.07119525228161365)"/>
  <text x="600" y="335" font-family="system-ui, -apple-system, 'Segoe UI', sans-serif" font-size="68" font-weight="700" fill="rgba(0,0,0,0.15)" text-anchor="middle" letter-spacing="1">AP Human Geography</text>
  <text x="600" y="332" font-family="system-ui, -apple-system, 'Segoe UI', sans-serif" font-size="68" font-weight="700" fill="white" text-anchor="middle" letter-spacing="1">AP Human Geography</text>
  <g transform="translate(1140, 575)">
    <rect x="0" y="0" width="40" height="40" rx="8" fill="rgba(255,255,255,0.15)"/>
    <text x="20" y="29" font-family="sans-serif" font-weight="bold" font-size="24" fill="rgba(255,255,255,0.6)" text-anchor="middle">K</text>
  </g>
</svg>